# xmcd
#
# Track frame offsets:
#	150
#	13200
#	44130
#	60585
#	71047
#	88110
#	101165
#	118190
#	131745
#	158250
#	177247
#	195807
#
# Disc length: 2715 seconds
#
# Revision: 2
# Processed by: cddbd v1.5.2PL0 Copyright (c) Steve Scherf et al.
# Submitted via: audiograbber 1.80
#
DISCID=a50a990c
DTITLE=Jon Butcher - Positively The Blues
DYEAR=1996
DGENRE=Blues
TTITLE0=Cadillac Limousine
TTITLE1=Clean-Up Time
TTITLE2=Taxman Blues
TTITLE3=Union Hall
TTITLE4=Honey Bee
TTITLE5=Here I Am
TTITLE6=20 Years
TTITLE7=I Hate Myself
TTITLE8=At The Feet of the Master
TTITLE9=Two Penny Nail
TTITLE10=High Heel Shoes
TTITLE11=Sail On
EXTD=
EXTT0=
EXTT1=
EXTT2=
EXTT3=
EXTT4=
EXTT5=
EXTT6=
EXTT7=
EXTT8=
EXTT9=
EXTT10=
EXTT11=
PLAYORDER=
